ffmpeg version 4.4.2-0ubuntu0.22.04.1 Copyright (c) 2000-2021 the FFmpeg developers
  built with gcc 11 (Ubuntu 11.2.0-19ubuntu1)
  configuration: --prefix=/usr --extra-version=0ubuntu0.22.04.1 --toolchain=hardened --libdir=/usr/lib/x86_64-linux-gnu --incdir=/usr/include/x86_64-linux-gnu --arch=amd64 --enable-gpl --disable-stripping --enable-gnutls --enable-ladspa --enable-libaom --enable-libass --enable-libbluray --enable-libbs2b --enable-libcaca --enable-libcdio --enable-libcodec2 --enable-libdav1d --enable-libflite --enable-libfontconfig --enable-libfreetype --enable-libfribidi --enable-libgme --enable-libgsm --enable-libjack --enable-libmp3lame --enable-libmysofa --enable-libopenjpeg --enable-libopenmpt --enable-libopus --enable-libpulse --enable-librabbitmq --enable-librubberband --enable-libshine --enable-libsnappy --enable-libsoxr --enable-libspeex --enable-libsrt --enable-libssh --enable-libtheora --enable-libtwolame --enable-libvidstab --enable-libvorbis --enable-libvpx --enable-libwebp --enable-libx265 --enable-libxml2 --enable-libxvid --enable-libzimg --enable-libzmq --enable-libzvbi --enable-lv2 --enable-omx --enable-openal --enable-opencl --enable-opengl --enable-sdl2 --enable-pocketsphinx --enable-librsvg --enable-libmfx --enable-libdc1394 --enable-libdrm --enable-libiec61883 --enable-chromaprint --enable-frei0r --enable-libx264 --enable-shared
  libavutil      56. 70.100 / 56. 70.100
  libavcodec     58.134.100 / 58.134.100
  libavformat    58. 76.100 / 58. 76.100
  libavdevice    58. 13.100 / 58. 13.100
  libavfilter     7.110.100 /  7.110.100
  libswscale      5.  9.100 /  5.  9.100
  libswresample   3.  9.100 /  3.  9.100
  libpostproc    55.  9.100 / 55.  9.100
Input #0, flv, from '/storage/32426326/20250531/32426326-20250531-150712-270.flv':
  Metadata:
    fps             : 60
    encoder         : obs-output module (libobs version 31.0.2)
    Rawdata         : 
    displayWidth    : 1920
    cdn_ip          : 192.168.252.5
    profile         : 
    displayHeight   : 1080
    level           : 
    Title           : 技术主播没有GG
    Artist          : 蓝音BuBuLine (32426326)
    Comment         : mikufans直播间 32426326 的直播录像
                    : 主播名: 蓝音BuBuLine
                    : 直播标题: 技术主播没有GG
                    : 直播分区: 单机游戏·主机游戏
                    : 录制时间: 2025-05-31T15:07:12.3604479+00:00
                    : 直播服务器:
                    : d1--ov-gotcha07.bilivideo.com [156.59.188.245]
                    : 
                    : 使用 mikufans录播姬 录制 https://rec.danmuji.org
                    : 录播姬版本: 2.11.0
    RecordedBy      : BililiveRecorder mikufans录播姬
    RecordedFrom    : d1--ov-gotcha07.bilivideo.com
    StreamServers   : d1--ov-gotcha07.bilivideo.com [156.59.188.245]
    RecorderVersion : 2.11.0+Branch.tags-v2.11.0.Sha.d32ebb97483b1ae77acfc6dbcfef17bd64913ccd
    StartTime       : Sat, 31 May 2025 15:07:12 +0000
    RoomId          : 32426326
    ShortId         : 0
    Name            : 蓝音BuBuLine
    StreamTitle     : 技术主播没有GG
    AreaNameParent  : 单机游戏
    AreaNameChild   : 主机游戏
  Duration: 05:17:16.03, start: 0.035000, bitrate: 6890 kb/s
  Stream #0:0: Video: h264 (High), yuv420p(tv, bt709, progressive), 1920x1080 [SAR 1:1 DAR 16:9], 8192 kb/s, 60 fps, 60 tbr, 1k tbn, 120 tbc
  Stream #0:1: Audio: aac (LC), 48000 Hz, stereo, fltp, 131 kb/s
Stream mapping:
  Stream #0:0 -> #0:0 (h264 (native) -> png (native))
Press [q] to stop, [?] for help
Output #0, image2, to '/storage/32426326/20250531/32426326-20250531-150712-270.all.thumb.png':
  Metadata:
    fps             : 60
    AreaNameChild   : 主机游戏
    Rawdata         : 
    displayWidth    : 1920
    cdn_ip          : 192.168.252.5
    profile         : 
    displayHeight   : 1080
    level           : 
    Title           : 技术主播没有GG
    Artist          : 蓝音BuBuLine (32426326)
    Comment         : mikufans直播间 32426326 的直播录像
                    : 主播名: 蓝音BuBuLine
                    : 直播标题: 技术主播没有GG
                    : 直播分区: 单机游戏·主机游戏
                    : 录制时间: 2025-05-31T15:07:12.3604479+00:00
                    : 直播服务器:
                    : d1--ov-gotcha07.bilivideo.com [156.59.188.245]
                    : 
                    : 使用 mikufans录播姬 录制 https://rec.danmuji.org
                    : 录播姬版本: 2.11.0
    RecordedBy      : BililiveRecorder mikufans录播姬
    RecordedFrom    : d1--ov-gotcha07.bilivideo.com
    StreamServers   : d1--ov-gotcha07.bilivideo.com [156.59.188.245]
    RecorderVersion : 2.11.0+Branch.tags-v2.11.0.Sha.d32ebb97483b1ae77acfc6dbcfef17bd64913ccd
    StartTime       : Sat, 31 May 2025 15:07:12 +0000
    RoomId          : 32426326
    ShortId         : 0
    Name            : 蓝音BuBuLine
    StreamTitle     : 技术主播没有GG
    AreaNameParent  : 单机游戏
    encoder         : Lavf58.76.100
  Stream #0:0: Video: png, rgb24(pc, gbr/bt709/bt709, progressive), 1920x1080 [SAR 1:1 DAR 16:9], q=2-31, 200 kb/s, 60 fps, 60 tbn
    Metadata:
      encoder         : Lavc58.134.100 png
frame=    1 fps=0.0 q=0.0 size=N/A time=00:00:00.00 bitrate=N/A speed=   0x    frame=    1 fps=0.0 q=-0.0 Lsize=N/A time=00:00:00.01 bitrate=N/A speed=0.0401x    
video:3464kB audio:0kB subtitle:0kB other streams:0kB global headers:0kB muxing overhead: unknown
ffmpeg version 4.4.2-0ubuntu0.22.04.1 Copyright (c) 2000-2021 the FFmpeg developers
  built with gcc 11 (Ubuntu 11.2.0-19ubuntu1)
  configuration: --prefix=/usr --extra-version=0ubuntu0.22.04.1 --toolchain=hardened --libdir=/usr/lib/x86_64-linux-gnu --incdir=/usr/include/x86_64-linux-gnu --arch=amd64 --enable-gpl --disable-stripping --enable-gnutls --enable-ladspa --enable-libaom --enable-libass --enable-libbluray --enable-libbs2b --enable-libcaca --enable-libcdio --enable-libcodec2 --enable-libdav1d --enable-libflite --enable-libfontconfig --enable-libfreetype --enable-libfribidi --enable-libgme --enable-libgsm --enable-libjack --enable-libmp3lame --enable-libmysofa --enable-libopenjpeg --enable-libopenmpt --enable-libopus --enable-libpulse --enable-librabbitmq --enable-librubberband --enable-libshine --enable-libsnappy --enable-libsoxr --enable-libspeex --enable-libsrt --enable-libssh --enable-libtheora --enable-libtwolame --enable-libvidstab --enable-libvorbis --enable-libvpx --enable-libwebp --enable-libx265 --enable-libxml2 --enable-libxvid --enable-libzimg --enable-libzmq --enable-libzvbi --enable-lv2 --enable-omx --enable-openal --enable-opencl --enable-opengl --enable-sdl2 --enable-pocketsphinx --enable-librsvg --enable-libmfx --enable-libdc1394 --enable-libdrm --enable-libiec61883 --enable-chromaprint --enable-frei0r --enable-libx264 --enable-shared
  libavutil      56. 70.100 / 56. 70.100
  libavcodec     58.134.100 / 58.134.100
  libavformat    58. 76.100 / 58. 76.100
  libavdevice    58. 13.100 / 58. 13.100
  libavfilter     7.110.100 /  7.110.100
  libswscale      5.  9.100 /  5.  9.100
  libswresample   3.  9.100 /  3.  9.100
  libpostproc    55.  9.100 / 55.  9.100
[flv @ 0x56192f53afc0] Auto-inserting h264_mp4toannexb bitstream filter
Input #0, concat, from '/storage/32426326/20250531/32426326-20250531-150712-270.all.concat.txt':
  Duration: N/A, start: 0.000000, bitrate: 8323 kb/s
  Stream #0:0: Video: h264 (High), yuv420p(tv, bt709, progressive), 1920x1080 [SAR 1:1 DAR 16:9], 8192 kb/s, 60 fps, 60 tbr, 1k tbn, 120 tbc
  Stream #0:1: Audio: aac (LC), 48000 Hz, stereo, fltp, 131 kb/s
Output #0, flv, to '/storage/32426326/20250531/32426326-20250531-150712-270.all.flv':
  Metadata:
    encoder         : Lavf58.76.100
  Stream #0:0: Video: h264 (High) ([7][0][0][0] / 0x0007), yuv420p(tv, bt709, progressive), 1920x1080 [SAR 1:1 DAR 16:9], q=2-31, 8192 kb/s, 60 fps, 60 tbr, 1k tbn, 1k tbc
  Stream #0:1: Audio: aac (LC) ([10][0][0][0] / 0x000A), 48000 Hz, stereo, fltp, 131 kb/s
Stream mapping:
  Stream #0:0 -> #0:0 (copy)
  Stream #0:1 -> #0:1 (copy)
Press [q] to stop, [?] for help
frame=    1 fps=0.0 q=-1.0 size=       0kB time=00:00:00.00 bitrate=N/A speed=N/A    frame= 4033 fps=0.0 q=-1.0 size=   34816kB time=00:01:07.37 bitrate=4233.3kbits/s speed= 135x    frame= 6335 fps=6335 q=-1.0 size=   72960kB time=00:01:45.73 bitrate=5653.0kbits/s speed= 106x    frame= 8512 fps=5673 q=-1.0 size=  109312kB time=00:02:22.01 bitrate=6305.6kbits/s speed=94.7x    frame=10879 fps=5438 q=-1.0 size=  146944kB time=00:03:01.46 bitrate=6633.6kbits/s speed=90.7x    frame=13049 fps=5218 q=-1.0 size=  183040kB time=00:03:37.63 bitrate=6890.0kbits/s speed=  87x    frame=15344 fps=5113 q=-1.0 size=  221184kB time=00:04:15.88 bitrate=7081.2kbits/s speed=85.3x    frame=17518 fps=5003 q=-1.0 size=  257280kB time=00:04:52.12 bitrate=7214.9kbits/s speed=83.4x    frame=19856 fps=4961 q=-1.0 size=  295936kB time=00:05:31.08 bitrate=7322.4kbits/s speed=82.7x    frame=22227 fps=4936 q=-1.0 size=  335360kB time=00:06:10.59 bitrate=7413.1kbits/s speed=82.3x    frame=24713 fps=4938 q=-1.0 size=  376576kB time=00:06:52.03 bitrate=7487.1kbits/s speed=82.3x    frame=27260 fps=4952 q=-1.0 size=  418560kB time=00:07:34.48 bitrate=7544.5kbits/s speed=82.6x    frame=29814 fps=4965 q=-1.0 size=  460800kB time=00:08:17.04 bitrate=7594.6kbits/s speed=82.8x    frame=32094 fps=4934 q=-1.0 size=  498688kB time=00:08:55.04 bitrate=7635.3kbits/s speed=82.3x    frame=34748 fps=4960 q=-1.0 size=  542720kB time=00:09:39.28 bitrate=7675.0kbits/s speed=82.7x    frame=37162 fps=4951 q=-1.0 size=  581376kB time=00:10:19.52 bitrate=7687.6kbits/s speed=82.5x    frame=39608 fps=4947 q=-1.0 size=  622080kB time=00:11:00.29 bitrate=7717.9kbits/s speed=82.5x    frame=42176 fps=4958 q=-1.0 size=  664576kB time=00:11:43.08 bitrate=7743.4kbits/s speed=82.7x    frame=44814 fps=4976 q=-1.0 size=  708352kB time=00:12:27.04 bitrate=7767.7kbits/s speed=82.9x    frame=47364 fps=4982 q=-1.0 size=  750592kB time=00:13:09.54 bitrate=7787.8kbits/s speed=  83x    frame=50004 fps=4996 q=-1.0 size=  794368kB time=00:13:53.54 bitrate=7807.0kbits/s speed=83.3x    frame=52388 fps=4985 q=-1.0 size=  832512kB time=00:14:33.28 bitrate=7809.5kbits/s speed=83.1x    frame=55097 fps=5005 q=-1.0 size=  877568kB time=00:15:18.43 bitrate=7827.5kbits/s speed=83.4x    frame=57619 fps=5006 q=-1.0 size=  919296kB time=00:16:00.47 bitrate=7840.8kbits/s speed=83.5x    frame=60060 fps=5001 q=-1.0 size=  959744kB time=00:16:41.15 bitrate=7853.1kbits/s speed=83.4x    frame=62655 fps=5009 q=-1.0 size= 1002752kB time=00:17:24.39 bitrate=7865.3kbits/s speed=83.5x    frame=65135 fps=5007 q=-1.0 size= 1043712kB time=00:18:05.74 bitrate=7874.9kbits/s speed=83.5x    frame=67630 fps=5006 q=-1.0 size= 1085184kB time=00:18:47.31 bitrate=7885.9kbits/s speed=83.4x    frame=70214 fps=5011 q=-1.0 size= 1128192kB time=00:19:30.39 bitrate=7896.6kbits/s speed=83.5x    frame=72518 fps=4997 q=-1.0 size= 1166080kB time=00:20:08.79 bitrate=7902.5kbits/s speed=83.3x    frame=75249 fps=5013 q=-1.0 size= 1210112kB time=00:20:54.29 bitrate=7903.4kbits/s speed=83.6x    frame=77871 fps=5020 q=-1.0 size= 1253632kB time=00:21:37.99 bitrate=7912.0kbits/s speed=83.7x    frame=80186 fps=5008 q=-1.0 size= 1291776kB time=00:22:16.58 bitrate=7917.4kbits/s speed=83.5x    frame=82792 fps=5014 q=-1.0 size= 1333760kB time=00:23:00.01 bitrate=7917.4kbits/s speed=83.6x    frame=85349 fps=5017 q=-1.0 size= 1376256kB time=00:23:42.63 bitrate=7925.0kbits/s speed=83.6x    frame=87803 fps=5014 q=-1.0 size= 1416704kB time=00:24:23.53 bitrate=7929.9kbits/s speed=83.6x    frame=90407 fps=5019 q=-1.0 size= 1460224kB time=00:25:06.93 bitrate=7938.1kbits/s speed=83.7x    frame=92815 fps=5013 q=-1.0 size= 1499904kB time=00:25:47.07 bitrate=7942.2kbits/s speed=83.6x    frame=95482 fps=5022 q=-1.0 size= 1544192kB time=00:26:31.51 bitrate=7948.4kbits/s speed=83.7x    frame=98063 fps=5025 q=-1.0 size= 1586944kB time=00:27:14.54 bitrate=7953.4kbits/s speed=83.8x    frame=100310 fps=5012 q=-1.0 size= 1624064kB time=00:27:51.98 bitrate=7957.2kbits/s speed=83.5x    frame=102807 fps=5012 q=-1.0 size= 1665536kB time=00:28:33.60 bitrate=7962.2kbits/s speed=83.5x    frame=105291 fps=5011 q=-1.0 size= 1706496kB time=00:29:15.01 bitrate=7965.5kbits/s speed=83.5x    frame=107584 fps=5001 q=-1.0 size= 1744640kB time=00:29:53.21 bitrate=7970.1kbits/s speed=83.4x    frame=110139 fps=5003 q=-1.0 size= 1787136kB time=00:30:35.79 bitrate=7974.9kbits/s speed=83.4x    frame=112442 fps=4994 q=-1.0 size= 1825024kB time=00:31:14.18 bitrate=7977.1kbits/s speed=83.2x    frame=115002 fps=4997 q=-1.0 size= 1867520kB time=00:31:56.84 bitrate=7981.2kbits/s speed=83.3x    frame=117541 fps=4999 q=-1.0 size= 1909504kB time=00:32:39.17 bitrate=7984.3kbits/s speed=83.3x    frame=119949 fps=4995 q=-1.0 size= 1949440kB time=00:33:19.30 bitrate=7987.7kbits/s speed=83.3x    frame=122547 fps=4999 q=-1.0 size= 1991168kB time=00:34:02.60 bitrate=7985.7kbits/s speed=83.3x    frame=125171 fps=5004 q=-1.0 size= 2034944kB time=00:34:46.34 bitrate=7990.2kbits/s speed=83.4x    frame=127473 fps=4996 q=-1.0 size= 2072832kB time=00:35:24.69 bitrate=7992.0kbits/s speed=83.3x    frame=130089 fps=5000 q=-1.0 size= 2116352kB time=00:36:08.30 bitrate=7995.7kbits/s speed=83.3x    frame=132499 fps=4997 q=-1.0 size= 2156288kB time=00:36:48.46 bitrate=7998.5kbits/s speed=83.3x    frame=134949 fps=4995 q=-1.0 size= 2196992kB time=00:37:29.30 bitrate=8001.5kbits/s speed=83.3x    frame=137387 fps=4993 q=-1.0 size= 2237440kB time=00:38:09.94 bitrate=8004.2kbits/s speed=83.2x    frame=139785 fps=4989 q=-1.0 size= 2276864kB time=00:38:49.90 bitrate=8005.5kbits/s speed=83.2x    frame=142198 fps=4986 q=-1.0 size= 2317056kB time=00:39:30.11 bitrate=8008.6kbits/s speed=83.1x    frame=144787 fps=4990 q=-1.0 size= 2359808kB time=00:40:13.27 bitrate=8010.5kbits/s speed=83.2x    frame=147274 fps=4989 q=-1.0 size= 2401024kB time=00:40:54.71 bitrate=8012.8kbits/s speed=83.2x    frame=149958 fps=4996 q=-1.0 size= 2445568kB time=00:41:39.44 bitrate=8015.4kbits/s speed=83.3x    frame=152497 fps=4997 q=-1.0 size= 2486272kB time=00:42:21.76 bitrate=8013.2kbits/s speed=83.3x    frame=154952 fps=4995 q=-1.0 size= 2526976kB time=00:43:02.68 bitrate=8015.3kbits/s speed=83.3x    frame=157498 fps=4997 q=-1.0 size= 2569216kB time=00:43:45.11 bitrate=8017.6kbits/s speed=83.3x    frame=159925 fps=4995 q=-1.0 size= 2609408kB time=00:44:25.56 bitrate=8019.4kbits/s speed=83.3x    frame=162381 fps=4993 q=-1.0 size= 2650112kB time=00:45:06.50 bitrate=8021.3kbits/s speed=83.2x    frame=164881 fps=4994 q=-1.0 size= 2691584kB time=00:45:48.16 bitrate=8023.3kbits/s speed=83.2x    frame=167209 fps=4988 q=-1.0 size= 2730240kB time=00:46:26.96 bitrate=8025.3kbits/s speed=83.1x    frame=169557 fps=4984 q=-1.0 size= 2769152kB time=00:47:06.09 bitrate=8026.9kbits/s speed=83.1x    frame=172172 fps=4988 q=-1.0 size= 2812416kB time=00:47:49.68 bitrate=8028.5kbits/s speed=83.1x    frame=174475 fps=4982 q=-1.0 size= 2850560kB time=00:48:28.06 bitrate=8030.0kbits/s speed=  83x    frame=176940 fps=4981 q=-1.0 size= 2891520kB time=00:49:09.14 bitrate=8031.9kbits/s speed=  83x    frame=179421 fps=4981 q=-1.0 size= 2932480kB time=00:49:50.51 bitrate=8033.0kbits/s speed=  83x    frame=181687 fps=4975 q=-1.0 size= 2970112kB time=00:50:28.26 bitrate=8034.7kbits/s speed=82.9x    frame=184156 fps=4974 q=-1.0 size= 3011072kB time=00:51:09.42 bitrate=8036.3kbits/s speed=82.9x    frame=186415 fps=4968 q=-1.0 size= 3048448kB time=00:51:47.06 bitrate=8037.5kbits/s speed=82.8x    frame=188888 fps=4968 q=-1.0 size= 3088128kB time=00:52:28.28 bitrate=8035.5kbits/s speed=82.8x    frame=191442 fps=4970 q=-1.0 size= 3130624kB time=00:53:10.85 bitrate=8037.4kbits/s speed=82.8x    frame=193774 fps=4966 q=-1.0 size= 3169280kB time=00:53:49.71 bitrate=8038.7kbits/s speed=82.8x    frame=196330 fps=4968 q=-1.0 size= 3211520kB time=00:54:32.32 bitrate=8039.8kbits/s speed=82.8x    frame=198946 fps=4971 q=-1.0 size= 3255040kB time=00:55:15.91 bitrate=8041.6kbits/s speed=82.9x    frame=201231 fps=4966 q=-1.0 size= 3292672kB time=00:55:54.00 bitrate=8042.2kbits/s speed=82.8x    frame=203773 fps=4967 q=-1.0 size= 3334912kB time=00:56:36.36 bitrate=8043.8kbits/s speed=82.8x    frame=206211 fps=4966 q=-1.0 size= 3375104kB time=00:57:16.99 bitrate=8044.5kbits/s speed=82.8x    frame=208630 fps=4965 q=-1.0 size= 3415296kB time=00:57:57.31 bitrate=8045.9kbits/s speed=82.7x    frame=211168 fps=4966 q=-1.0 size= 3457280kB time=00:58:39.62 bitrate=8046.9kbits/s speed=82.8x    frame=213478 fps=4962 q=-1.0 size= 3495680kB time=00:59:18.12 bitrate=8048.2kbits/s speed=82.7x    frame=215878 fps=4960 q=-1.0 size= 3535360kB time=00:59:58.12 bitrate=8049.1kbits/s speed=82.7x    frame=218387 fps=4961 q=-1.0 size= 3577088kB time=01:00:39.94 bitrate=8050.5kbits/s speed=82.7x    frame=220708 fps=4957 q=-1.0 size= 3615488kB time=01:01:18.61 bitrate=8051.4kbits/s speed=82.6x    frame=223396 fps=4962 q=-1.0 size= 3660032kB time=01:02:03.41 bitrate=8052.6kbits/s speed=82.7x    frame=226037 fps=4965 q=-1.0 size= 3701504kB time=01:02:47.43 bitrate=8048.6kbits/s speed=82.8x    frame=228489 fps=4964 q=-1.0 size= 3742208kB time=01:03:28.29 bitrate=8049.8kbits/s speed=82.7x    frame=231118 fps=4967 q=-1.0 size= 3784448kB time=01:04:12.11 bitrate=8048.1kbits/s speed=82.8x    frame=233549 fps=4966 q=-1.0 size= 3824896kB time=01:04:52.63 bitrate=8049.5kbits/s speed=82.8x    frame=236073 fps=4967 q=-1.0 size= 3866624kB time=01:05:34.69 bitrate=8050.3kbits/s speed=82.8x    frame=239170 fps=4980 q=-1.0 size= 3918080kB time=01:06:26.31 bitrate=8051.8kbits/s speed=  83x    frame=242096 fps=4989 q=-1.0 size= 3966464kB time=01:07:15.08 bitrate=8052.7kbits/s speed=83.1x    frame=244939 fps=4996 q=-1.0 size= 4013568kB time=01:08:02.47 bitrate=8053.7kbits/s speed=83.3x    frame=247469 fps=4997 q=-1.0 size= 4055296kB time=01:08:44.63 bitrate=8054.3kbits/s speed=83.3x    frame=249812 fps=4993 q=-1.0 size= 4094208kB time=01:09:23.69 bitrate=8055.3kbits/s speed=83.2x    frame=252373 fps=4995 q=-1.0 size= 4136704kB time=01:10:06.36 bitrate=8056.3kbits/s speed=83.2x    frame=254954 fps=4996 q=-1.0 size= 4179456kB time=01:10:49.39 bitrate=8057.2kbits/s speed=83.3x    frame=257488 fps=4997 q=-1.0 size= 4221440kB time=01:11:31.61 bitrate=8058.1kbits/s speed=83.3x    frame=260234 fps=5002 q=-1.0 size= 4265728kB time=01:12:17.39 bitrate=8056.7kbits/s speed=83.4x    frame=262692 fps=5001 q=-1.0 size= 4306688kB time=01:12:58.34 bitrate=8057.9kbits/s speed=83.4x    frame=265263 fps=5002 q=-1.0 size= 4349184kB time=01:13:41.20 bitrate=8058.5kbits/s speed=83.4x    frame=267780 fps=5002 q=-1.0 size= 4390912kB time=01:14:23.14 bitrate=8059.4kbits/s speed=83.4x    frame=270172 fps=5000 q=-1.0 size= 4430592kB time=01:15:03.02 bitrate=8060.2kbits/s speed=83.3x    frame=272787 fps=5002 q=-1.0 size= 4473856kB time=01:15:46.59 bitrate=8060.9kbits/s speed=83.4x    frame=275439 fps=5005 q=-1.0 size= 4517888kB time=01:16:30.80 bitrate=8061.9kbits/s speed=83.4x    frame=277925 fps=5005 q=-1.0 size= 4559104kB time=01:17:12.23 bitrate=8062.7kbits/s speed=83.4x    frame=280488 fps=5006 q=-1.0 size= 4601344kB time=01:17:54.94 bitrate=8063.0kbits/s speed=83.4x    frame=282916 fps=5005 q=-1.0 size= 4641792kB time=01:18:35.41 bitrate=8064.1kbits/s speed=83.4x    frame=285364 fps=5004 q=-1.0 size= 4682240kB time=01:19:16.21 bitrate=8064.6kbits/s speed=83.4x    frame=287854 fps=5003 q=-1.0 size= 4723456kB time=01:19:57.72 bitrate=8065.2kbits/s speed=83.4x    frame=290222 fps=5001 q=-1.0 size= 4762624kB time=01:20:37.18 bitrate=8065.7kbits/s speed=83.4x    frame=292815 fps=5003 q=-1.0 size= 4804352kB time=01:21:20.40 bitrate=8064.3kbits/s speed=83.4x    frame=295415 fps=5004 q=-1.0 size= 4847616kB time=01:22:03.73 bitrate=8065.4kbits/s speed=83.4x    frame=297847 fps=5003 q=-1.0 size= 4888064kB time=01:22:44.27 bitrate=8066.2kbits/s speed=83.4x    frame=300389 fps=5004 q=-1.0 size= 4930304kB time=01:23:26.63 bitrate=8067.1kbits/s speed=83.4x    frame=302815 fps=5002 q=-1.0 size= 4970240kB time=01:24:07.06 bitrate=8067.3kbits/s speed=83.4x    frame=305250 fps=5001 q=-1.0 size= 5010688kB time=01:24:47.64 bitrate=8068.1kbits/s speed=83.4x    frame=307804 fps=5002 q=-1.0 size= 5052928kB time=01:25:30.21 bitrate=8068.6kbits/s speed=83.4x    frame=310286 fps=5002 q=-1.0 size= 5094144kB time=01:26:11.58 bitrate=8069.3kbits/s speed=83.4x    frame=312767 fps=5002 q=-1.0 size= 5135104kB time=01:26:52.93 bitrate=8069.7kbits/s speed=83.4x    frame=315277 fps=5002 q=-1.0 size= 5176576kB time=01:27:34.76 bitrate=8070.1kbits/s speed=83.4x    frame=317472 fps=4997 q=-1.0 size= 5213184kB time=01:28:11.34 bitrate=8071.0kbits/s speed=83.3x    frame=319780 fps=4994 q=-1.0 size= 5251328kB time=01:28:49.81 bitrate=8071.4kbits/s speed=83.2x    frame=322050 fps=4990 q=-1.0 size= 5288960kB time=01:29:27.64 bitrate=8071.9kbits/s speed=83.2x    frame=324688 fps=4992 q=-1.0 size= 5331712kB time=01:30:11.61 bitrate=8071.0kbits/s speed=83.2x    frame=327171 fps=4992 q=-1.0 size= 5372672kB time=01:30:52.99 bitrate=8071.3kbits/s speed=83.2x    frame=329559 fps=4991 q=-1.0 size= 5412096kB time=01:31:32.79 bitrate=8071.6kbits/s speed=83.2x    frame=331997 fps=4990 q=-1.0 size= 5452544kB time=01:32:13.43 bitrate=8072.3kbits/s speed=83.2x    frame=334480 fps=4989 q=-1.0 size= 5493504kB time=01:32:54.81 bitrate=8072.5kbits/s speed=83.2x    frame=336888 fps=4988 q=-1.0 size= 5533696kB time=01:33:34.94 bitrate=8073.5kbits/s speed=83.1x    frame=339502 fps=4990 q=-1.0 size= 5576960kB time=01:34:18.52 bitrate=8073.9kbits/s speed=83.2x    frame=341722 fps=4986 q=-1.0 size= 5613568kB time=01:34:55.51 bitrate=8074.1kbits/s speed=83.1x    frame=344273 fps=4987 q=-1.0 size= 5655808kB time=01:35:38.03 bitrate=8074.6kbits/s speed=83.1x    frame=346810 fps=4987 q=-1.0 size= 5697792kB time=01:36:20.31 bitrate=8075.0kbits/s speed=83.1x    frame=349014 fps=4983 q=-1.0 size= 5734400kB time=01:36:57.04 bitrate=8075.6kbits/s speed=83.1x    frame=351412 fps=4982 q=-1.0 size= 5774336kB time=01:37:37.02 bitrate=8076.3kbits/s speed=  83x    frame=353791 fps=4980 q=-1.0 size= 5813504kB time=01:38:16.66 bitrate=8076.5kbits/s speed=  83x    frame=356039 fps=4977 q=-1.0 size= 5850880kB time=01:38:54.13 bitrate=8077.1kbits/s speed=82.9x    frame=358596 fps=4978 q=-1.0 size= 5893120kB time=01:39:36.74 bitrate=8077.4kbits/s speed=  83x    frame=360908 fps=4975 q=-1.0 size= 5929984kB time=01:40:15.28 bitrate=8075.8kbits/s speed=82.9x    frame=363323 fps=4974 q=-1.0 size= 5969920kB time=01:40:55.53 bitrate=8076.2kbits/s speed=82.9x    frame=365818 fps=4974 q=-1.0 size= 6011392kB time=01:41:37.11 bitrate=8076.8kbits/s speed=82.9x    frame=368200 fps=4973 q=-1.0 size= 6051072kB time=01:42:16.81 bitrate=8077.5kbits/s speed=82.9x    frame=370683 fps=4973 q=-1.0 size= 6091776kB time=01:42:58.19 bitrate=8077.4kbits/s speed=82.9x    frame=373232 fps=4974 q=-1.0 size= 6134272kB time=01:43:40.68 bitrate=8078.2kbits/s speed=82.9x    frame=375487 fps=4970 q=-1.0 size= 6171392kB time=01:44:18.26 bitrate=8078.3kbits/s speed=82.8x    frame=377964 fps=4970 q=-1.0 size= 6212608kB time=01:44:59.54 bitrate=8078.9kbits/s speed=82.8x    frame=380430 fps=4970 q=-1.0 size= 6253568kB time=01:45:40.65 bitrate=8079.5kbits/s speed=82.8x    frame=382981 fps=4971 q=-1.0 size= 6295552kB time=01:46:23.17 bitrate=8079.6kbits/s speed=82.9x    frame=385307 fps=4969 q=-1.0 size= 6334208kB time=01:47:01.93 bitrate=8080.1kbits/s speed=82.8x    frame=387754 fps=4968 q=-1.0 size= 6374656kB time=01:47:42.72 bitrate=8080.4kbits/s speed=82.8x    frame=390264 fps=4969 q=-1.0 size= 6416128kB time=01:48:24.55 bitrate=8080.6kbits/s speed=82.8x    frame=392539 fps=4966 q=-1.0 size= 6454016kB time=01:49:02.46 bitrate=8081.3kbits/s speed=82.8x    frame=395030 fps=4966 q=-1.0 size= 6495232kB time=01:49:43.98 bitrate=8081.6kbits/s speed=82.8x    frame=397467 fps=4966 q=-1.0 size= 6535680kB time=01:50:24.59 bitrate=8082.0kbits/s speed=82.8x    frame=399933 fps=4965 q=-1.0 size= 6576384kB time=01:51:05.71 bitrate=8082.2kbits/s speed=82.8x    frame=402566 fps=4967 q=-1.0 size= 6618880kB time=01:51:49.58 bitrate=8081.3kbits/s speed=82.8x    frame=404849 fps=4965 q=-1.0 size= 6656512kB time=01:52:27.63 bitrate=8081.4kbits/s speed=82.7x    frame=407440 fps=4966 q=-1.0 size= 6699776kB time=01:53:10.81 bitrate=8082.2kbits/s speed=82.8x    frame=409947 fps=4966 q=-1.0 size= 6741248kB time=01:53:52.59 bitrate=8082.5kbits/s speed=82.8x    frame=412064 fps=4962 q=-1.0 size= 6776320kB time=01:54:27.88 bitrate=8082.8kbits/s speed=82.7x    frame=414557 fps=4962 q=-1.0 size= 6816512kB time=01:55:09.43 bitrate=8081.8kbits/s speed=82.7x    frame=417105 fps=4963 q=-1.0 size= 6858496kB time=01:55:51.89 bitrate=8081.9kbits/s speed=82.7x    frame=419638 fps=4963 q=-1.0 size= 6900480kB time=01:56:34.11 bitrate=8082.3kbits/s speed=82.7x    frame=422217 fps=4964 q=-1.0 size= 6943488kB time=01:57:17.09 bitrate=8083.0kbits/s speed=82.7x    frame=424602 fps=4963 q=-1.0 size= 6982912kB time=01:57:56.84 bitrate=8083.3kbits/s speed=82.7x    frame=427181 fps=4964 q=-1.0 size= 7025920kB time=01:58:39.83 bitrate=8083.9kbits/s speed=82.7x    frame=429831 fps=4966 q=-1.0 size= 7068416kB time=01:59:23.99 bitrate=8082.7kbits/s speed=82.8x    frame=432151 fps=4964 q=-1.0 size= 7107072kB time=02:00:02.66 bitrate=8083.3kbits/s speed=82.7x    frame=434637 fps=4964 q=-1.0 size= 7148288kB time=02:00:44.10 bitrate=8083.7kbits/s speed=82.7x    frame=437229 fps=4966 q=-1.0 size= 7191040kB time=02:01:27.29 bitrate=8083.8kbits/s speed=82.8x    frame=439545 fps=4964 q=-1.0 size= 7229440kB time=02:02:05.89 bitrate=8084.1kbits/s speed=82.7x    frame=442108 fps=4965 q=-1.0 size= 7271936kB time=02:02:48.61 bitrate=8084.5kbits/s speed=82.7x    frame=444398 fps=4962 q=-1.0 size= 7310080kB time=02:03:26.78 bitrate=8085.0kbits/s speed=82.7x    frame=446980 fps=4963 q=-1.0 size= 7351552kB time=02:04:09.81 bitrate=8083.9kbits/s speed=82.7x    frame=449524 fps=4964 q=-1.0 size= 7393792kB time=02:04:52.21 bitrate=8084.4kbits/s speed=82.7x    frame=451840 fps=4962 q=-1.0 size= 7432192kB time=02:05:30.81 bitrate=8084.7kbits/s speed=82.7x    frame=454269 fps=4962 q=-1.0 size= 7472384kB time=02:06:11.29 bitrate=8085.0kbits/s speed=82.7x    frame=456758 fps=4962 q=-1.0 size= 7513600kB time=02:06:52.78 bitrate=8085.3kbits/s speed=82.7x    frame=459219 fps=4962 q=-1.0 size= 7554560kB time=02:07:33.80 bitrate=8085.8kbits/s speed=82.7x    frame=461707 fps=4962 q=-1.0 size= 7595520kB time=02:08:15.26 bitrate=8085.8kbits/s speed=82.7x    frame=464083 fps=4960 q=-1.0 size= 7634944kB time=02:08:54.87 bitrate=8086.2kbits/s speed=82.7x    frame=466723 fps=4962 q=-1.0 size= 7678464kB time=02:09:38.86 bitrate=8086.3kbits/s speed=82.7x    frame=469084 fps=4961 q=-1.0 size= 7717632kB time=02:10:18.21 bitrate=8086.6kbits/s speed=82.7x    frame=471593 fps=4961 q=-1.0 size= 7759360kB time=02:11:00.03 bitrate=8087.1kbits/s speed=82.7x    frame=474170 fps=4962 q=-1.0 size= 7802112kB time=02:11:42.98 bitrate=8087.4kbits/s speed=82.7x    frame=476603 fps=4962 q=-1.0 size= 7842304kB time=02:12:23.53 bitrate=8087.6kbits/s speed=82.7x    frame=480984 fps=4981 q=-1.0 size= 7884544kB time=02:13:36.54 bitrate=8057.1kbits/s speed=  83x    frame=485498 fps=5002 q=-1.0 size= 7927296kB time=02:14:51.78 bitrate=8025.5kbits/s speed=83.4x    frame=487849 fps=5001 q=-1.0 size= 7965440kB time=02:15:30.96 bitrate=8025.2kbits/s speed=83.3x    frame=490463 fps=5002 q=-1.0 size= 8008192kB time=02:16:14.53 bitrate=8025.3kbits/s speed=83.4x    frame=492907 fps=5001 q=-1.0 size= 8047872kB time=02:16:55.27 bitrate=8025.1kbits/s speed=83.4x    frame=495482 fps=5002 q=-1.0 size= 8088320kB time=02:17:38.18 bitrate=8023.5kbits/s speed=83.4x    frame=497993 fps=5002 q=-1.0 size= 8128768kB time=02:18:20.03 bitrate=8023.0kbits/s speed=83.4x    frame=500448 fps=5002 q=-1.0 size= 8169216kB time=02:19:00.94 bitrate=8023.3kbits/s speed=83.4x    frame=503127 fps=5003 q=-1.0 size= 8209920kB time=02:19:45.59 bitrate=8020.4kbits/s speed=83.4x    frame=506858 fps=5015 q=-1.0 size= 8252416kB time=02:20:47.79 bitrate=8002.5kbits/s speed=83.6x    frame=509400 fps=5016 q=-1.0 size= 8288768kB time=02:21:30.15 bitrate=7997.7kbits/s speed=83.6x    frame=512719 fps=5024 q=-1.0 size= 8331008kB time=02:22:25.47 bitrate=7986.4kbits/s speed=83.7x    frame=516346 fps=5035 q=-1.0 size= 8371456kB time=02:23:25.91 bitrate=7968.8kbits/s speed=83.9x    frame=519507 fps=5041 q=-1.0 size= 8413184kB time=02:24:18.59 bitrate=7959.8kbits/s speed=  84x    frame=522746 fps=5048 q=-1.0 size= 8457472kB time=02:25:12.58 bitrate=7952.1kbits/s speed=84.1x    frame=525795 fps=5053 q=-1.0 size= 8497408kB time=02:26:03.39 bitrate=7943.4kbits/s speed=84.2x    frame=529030 fps=5060 q=-1.0 size= 8539648kB time=02:26:57.32 bitrate=7934.0kbits/s speed=84.3x    frame=532377 fps=5067 q=-1.0 size= 8582144kB time=02:27:53.09 bitrate=7923.4kbits/s speed=84.5x    frame=535196 fps=5070 q=-1.0 size= 8618240kB time=02:28:40.08 bitrate=7914.8kbits/s speed=84.5x    frame=538607 fps=5078 q=-1.0 size= 8662272kB time=02:29:36.94 bitrate=7904.8kbits/s speed=84.6x    frame=542020 fps=5086 q=-1.0 size= 8706304kB time=02:30:33.81 bitrate=7895.0kbits/s speed=84.8x    frame=545117 fps=5092 q=-1.0 size= 8748288kB time=02:31:25.44 bitrate=7888.0kbits/s speed=84.9x    frame=548178 fps=5096 q=-1.0 size= 8789248kB time=02:32:16.45 bitrate=7880.7kbits/s speed=84.9x    frame=551306 fps=5102 q=-1.0 size= 8830208kB time=02:33:08.58 bitrate=7872.5kbits/s speed=  85x    frame=554144 fps=5104 q=-1.0 size= 8870400kB time=02:33:55.88 bitrate=7867.8kbits/s speed=85.1x    frame=558305 fps=5119 q=-1.0 size= 8913920kB time=02:35:05.23 bitrate=7847.5kbits/s speed=85.3x    frame=561099 fps=5121 q=-1.0 size= 8952832kB time=02:35:51.81 bitrate=7842.5kbits/s speed=85.4x    frame=563674 fps=5121 q=-1.0 size= 8993792kB time=02:36:34.71 bitrate=7842.4kbits/s speed=85.4x    frame=567858 fps=5136 q=-1.0 size= 9035776kB time=02:37:44.45 bitrate=7821.0kbits/s speed=85.6x    frame=570623 fps=5138 q=-1.0 size= 9075456kB time=02:38:30.53 bitrate=7817.2kbits/s speed=85.6x    frame=573758 fps=5143 q=-1.0 size= 9117952kB time=02:39:22.78 bitrate=7810.9kbits/s speed=85.7x    frame=576704 fps=5146 q=-1.0 size= 9160192kB time=02:40:11.88 bitrate=7807.0kbits/s speed=85.8x    frame=579264 fps=5146 q=-1.0 size= 9197824kB time=02:40:54.55 bitrate=7804.5kbits/s speed=85.8x    frame=582647 fps=5153 q=-1.0 size= 9241856kB time=02:41:50.93 bitrate=7796.3kbits/s speed=85.9x    frame=585347 fps=5154 q=-1.0 size= 9281792kB time=02:42:35.93 bitrate=7793.9kbits/s speed=85.9x    frame=590184 fps=5174 q=-1.0 size= 9321984kB time=02:43:56.54 bitrate=7763.5kbits/s speed=86.2x    frame=593807 fps=5183 q=-1.0 size= 9363456kB time=02:44:56.94 bitrate=7750.4kbits/s speed=86.4x    frame=596232 fps=5182 q=-1.0 size= 9402368kB time=02:45:37.34 bitrate=7751.0kbits/s speed=86.4x    frame=598709 fps=5181 q=-1.0 size= 9443584kB time=02:46:18.63 bitrate=7752.8kbits/s speed=86.3x    frame=601363 fps=5181 q=-1.0 size= 9486592kB time=02:47:02.86 bitrate=7753.7kbits/s speed=86.4x    frame=603777 fps=5180 q=-1.0 size= 9525504kB time=02:47:43.09 bitrate=7754.4kbits/s speed=86.3x    frame=606528 fps=5181 q=-1.0 size= 9569024kB time=02:48:28.94 bitrate=7754.5kbits/s speed=86.4x    frame=608952 fps=5180 q=-1.0 size= 9608192kB time=02:49:09.34 bitrate=7755.2kbits/s speed=86.3x    frame=612018 fps=5184 q=-1.0 size= 9647872kB time=02:50:00.44 bitrate=7748.2kbits/s speed=86.4x    frame=614391 fps=5182 q=-1.0 size= 9687296kB time=02:50:39.99 bitrate=7749.8kbits/s speed=86.4x    frame=617723 fps=5188 q=-1.0 size= 9725952kB time=02:51:35.53 bitrate=7738.8kbits/s speed=86.5x    frame=621014 fps=5194 q=-1.0 size= 9766656kB time=02:52:30.38 bitrate=7730.0kbits/s speed=86.6x    frame=624212 fps=5199 q=-1.0 size= 9809152kB time=02:53:23.69 bitrate=7723.9kbits/s speed=86.6x    frame=628003 fps=5209 q=-1.0 size= 9846016kB time=02:54:26.86 bitrate=7706.1kbits/s speed=86.8x    frame=631160 fps=5213 q=-1.0 size= 9886720kB time=02:55:19.49 bitrate=7699.2kbits/s speed=86.9x    frame=634046 fps=5215 q=-1.0 size= 9924864kB time=02:56:07.58 bitrate=7693.8kbits/s speed=86.9x    frame=637553 fps=5223 q=-1.0 size= 9961728kB time=02:57:06.03 bitrate=7679.9kbits/s speed=  87x    frame=640787 fps=5228 q=-1.0 size=10001408kB time=02:57:59.94 bitrate=7671.5kbits/s speed=87.1x    frame=643450 fps=5228 q=-1.0 size=10041088kB time=02:58:44.31 bitrate=7670.1kbits/s speed=87.1x    frame=646058 fps=5228 q=-1.0 size=10079232kB time=02:59:27.79 bitrate=7668.2kbits/s speed=87.1x    frame=648991 fps=5231 q=-1.0 size=10121216kB time=03:00:16.66 bitrate=7665.3kbits/s speed=87.2x    frame=652548 fps=5238 q=-1.0 size=10158080kB time=03:01:15.94 bitrate=7651.3kbits/s speed=87.3x    frame=655569 fps=5241 q=-1.0 size=10197248kB time=03:02:06.29 bitrate=7645.4kbits/s speed=87.4x    frame=658175 fps=5241 q=-1.0 size=10230272kB time=03:02:49.73 bitrate=7639.8kbits/s speed=87.4x    frame=661843 fps=5250 q=-1.0 size=10266112kB time=03:03:50.86 bitrate=7624.1kbits/s speed=87.5x    frame=664891 fps=5253 q=-1.0 size=10304768kB time=03:04:41.66 bitrate=7617.7kbits/s speed=87.6x    frame=667328 fps=5251 q=-1.0 size=10341632kB time=03:05:22.28 bitrate=7617.0kbits/s speed=87.5x    frame=670296 fps=5254 q=-1.0 size=10380288kB time=03:06:11.75 bitrate=7611.6kbits/s speed=87.6x    frame=673051 fps=5255 q=-1.0 size=10419456kB time=03:06:57.66 bitrate=7609.1kbits/s speed=87.6x    frame=675909 fps=5257 q=-1.0 size=10461184kB time=03:07:45.30 bitrate=7607.3kbits/s speed=87.6x    frame=678899 fps=5260 q=-1.0 size=10502656kB time=03:08:35.13 bitrate=7603.8kbits/s speed=87.7x    frame=681235 fps=5257 q=-1.0 size=10539264kB time=03:09:14.06 bitrate=7604.1kbits/s speed=87.6x    frame=684390 fps=5261 q=-1.0 size=10581248kB time=03:10:06.66 bitrate=7599.2kbits/s speed=87.7x    frame=687396 fps=5264 q=-1.0 size=10621696kB time=03:10:56.75 bitrate=7594.9kbits/s speed=87.7x    frame=690368 fps=5267 q=-1.0 size=10662400kB time=03:11:46.28 bitrate=7591.2kbits/s speed=87.8x    frame=694338 fps=5277 q=-1.0 size=10703872kB time=03:12:52.44 bitrate=7577.1kbits/s speed=  88x    frame=697053 fps=5278 q=-1.0 size=10745344kB time=03:13:37.69 bitrate=7576.9kbits/s speed=  88x    frame=699706 fps=5278 q=-1.0 size=10786816kB time=03:14:21.91 bitrate=7577.3kbits/s speed=  88x    frame=702839 fps=5281 q=-1.0 size=10829056kB time=03:15:14.13 bitrate=7573.0kbits/s speed=  88x    frame=706194 fps=5287 q=-1.0 size=10866176kB time=03:16:10.05 bitrate=7562.9kbits/s speed=88.1x    frame=709206 fps=5289 q=-1.0 size=10909440kB time=03:17:00.24 bitrate=7560.8kbits/s speed=88.2x    frame=711808 fps=5289 q=-1.0 size=10951936kB time=03:17:43.62 bitrate=7562.5kbits/s speed=88.2x    frame=714304 fps=5288 q=-1.0 size=10990848kB time=03:18:25.22 bitrate=7562.8kbits/s speed=88.1x    frame=716736 fps=5286 q=-1.0 size=11031040kB time=03:19:05.75 bitrate=7564.7kbits/s speed=88.1x    frame=719398 fps=5287 q=-1.0 size=11073024kB time=03:19:50.12 bitrate=7565.4kbits/s speed=88.1x    frame=725515 fps=5312 q=-1.0 size=11109888kB time=03:21:32.07 bitrate=7526.6kbits/s speed=88.5x    frame=731145 fps=5334 q=-1.0 size=11151616kB time=03:23:05.89 bitrate=7496.7kbits/s speed=88.9x    frame=734542 fps=5339 q=-1.0 size=11189248kB time=03:24:02.51 bitrate=7487.2kbits/s speed=  89x    frame=738243 fps=5346 q=-1.0 size=11230208kB time=03:25:04.19 bitrate=7476.9kbits/s speed=89.1x    frame=741918 fps=5354 q=-1.0 size=11272960kB time=03:26:05.44 bitrate=7468.2kbits/s speed=89.2x    frame=745449 fps=5360 q=-1.0 size=11313664kB time=03:27:04.30 bitrate=7459.7kbits/s speed=89.3x    frame=748778 fps=5364 q=-1.0 size=11355136kB time=03:27:59.79 bitrate=7453.8kbits/s speed=89.4x    frame=753569 fps=5379 q=-1.0 size=11392256kB time=03:29:19.64 bitrate=7430.6kbits/s speed=89.7x    frame=756555 fps=5382 q=-1.0 size=11434240kB time=03:30:09.39 bitrate=7428.5kbits/s speed=89.7x    frame=759862 fps=5386 q=-1.0 size=11478272kB time=03:31:04.51 bitrate=7424.7kbits/s speed=89.8x    frame=762500 fps=5386 q=-1.0 size=11514624kB time=03:31:48.48 bitrate=7422.4kbits/s speed=89.8x    frame=765472 fps=5387 q=-1.0 size=11557888kB time=03:32:38.02 bitrate=7421.4kbits/s speed=89.8x    frame=768439 fps=5389 q=-1.0 size=11599360kB time=03:33:27.46 bitrate=7419.3kbits/s speed=89.8x    frame=771257 fps=5390 q=-1.0 size=11637760kB time=03:34:14.43 bitrate=7416.6kbits/s speed=89.8x    frame=774295 fps=5393 q=-1.0 size=11679744kB time=03:35:05.07 bitrate=7414.2kbits/s speed=89.9x    frame=777056 fps=5393 q=-1.0 size=11720192kB time=03:35:51.08 bitrate=7413.4kbits/s speed=89.9x    frame=780027 fps=5395 q=-1.0 size=11761152kB time=03:36:40.59 bitrate=7411.0kbits/s speed=89.9x    frame=785347 fps=5413 q=-1.0 size=11802112kB time=03:38:09.26 bitrate=7386.4kbits/s speed=90.2x    frame=787874 fps=5412 q=-1.0 size=11841024kB time=03:38:51.38 bitrate=7387.0kbits/s speed=90.2x    frame=790721 fps=5413 q=-1.0 size=11884032kB time=03:39:38.83 bitrate=7387.1kbits/s speed=90.2x    frame=793550 fps=5413 q=-1.0 size=11926528kB time=03:40:25.98 bitrate=7387.1kbits/s speed=90.2x    frame=795945 fps=5411 q=-1.0 size=11963904kB time=03:41:05.90 bitrate=7388.0kbits/s speed=90.2x    frame=798525 fps=5410 q=-1.0 size=12004352kB time=03:41:48.89 bitrate=7389.0kbits/s speed=90.2x    frame=801194 fps=5410 q=-1.0 size=12043776kB time=03:42:33.39 bitrate=7388.6kbits/s speed=90.2x    frame=803572 fps=5408 q=-1.0 size=12081664kB time=03:43:13.02 bitrate=7389.9kbits/s speed=90.1x    frame=806403 fps=5409 q=-1.0 size=12123648kB time=03:44:00.19 bitrate=7389.5kbits/s speed=90.1x    frame=808751 fps=5406 q=-1.0 size=12160512kB time=03:44:39.34 bitrate=7390.5kbits/s speed=90.1x    frame=811108 fps=5404 q=-1.0 size=12199424kB time=03:45:18.61 bitrate=7392.6kbits/s speed=90.1x    frame=813987 fps=5405 q=-1.0 size=12239616kB time=03:46:06.59 bitrate=7390.7kbits/s speed=90.1x    frame=819309 fps=5423 q=-1.0 size=12275968kB time=03:47:35.29 bitrate=7364.5kbits/s speed=90.4x    frame=822255 fps=5424 q=-1.0 size=12317440kB time=03:48:24.40 bitrate=7362.9kbits/s speed=90.4x    frame=824850 fps=5423 q=-1.0 size=12357888kB time=03:49:07.64 bitrate=7363.9kbits/s speed=90.4x    frame=829494 fps=5436 q=-1.0 size=12393728kB time=03:50:25.04 bitrate=7343.9kbits/s speed=90.6x    frame=835562 fps=5458 q=-1.0 size=12432640kB time=03:52:06.19 bitrate=7313.4kbits/s speed=  91x    frame=841148 fps=5476 q=-1.0 size=12468480kB time=03:53:39.28 bitrate=7285.8kbits/s speed=91.3x    frame=844404 fps=5480 q=-1.0 size=12505600kB time=03:54:33.54 bitrate=7279.3kbits/s speed=91.3x    frame=848071 fps=5486 q=-1.0 size=12544768kB time=03:55:34.66 bitrate=7270.5kbits/s speed=91.4x    frame=851158 fps=5488 q=-1.0 size=12581120kB time=03:56:26.11 bitrate=7265.2kbits/s speed=91.5x    frame=854623 fps=5493 q=-1.0 size=12620288kB time=03:57:23.86 bitrate=7258.2kbits/s speed=91.5x    frame=858236 fps=5498 q=-1.0 size=12659968kB time=03:58:24.08 bitrate=7250.4kbits/s speed=91.6x    frame=861880 fps=5504 q=-1.0 size=12698368kB time=03:59:24.82 bitrate=7241.6kbits/s speed=91.7x    frame=865327 fps=5508 q=-1.0 size=12739584kB time=04:00:22.26 bitrate=7236.2kbits/s speed=91.8x    frame=868541 fps=5511 q=-1.0 size=12777984kB time=04:01:15.84 bitrate=7231.2kbits/s speed=91.9x    frame=872045 fps=5516 q=-1.0 size=12819200kB time=04:02:14.23 bitrate=7225.3kbits/s speed=91.9x    frame=875602 fps=5521 q=-1.0 size=12858624kB time=04:03:13.51 bitrate=7218.1kbits/s speed=  92x    frame=879053 fps=5525 q=-1.0 size=12896256kB time=04:04:11.03 bitrate=7210.8kbits/s speed=92.1x    frame=882619 fps=5530 q=-1.0 size=12936192kB time=04:05:10.46 bitrate=7203.9kbits/s speed=92.2x    frame=886020 fps=5534 q=-1.0 size=12977664kB time=04:06:07.14 bitrate=7199.3kbits/s speed=92.2x    frame=889308 fps=5538 q=-1.0 size=13013760kB time=04:07:01.95 bitrate=7192.6kbits/s speed=92.3x    frame=893211 fps=5545 q=-1.0 size=13053952kB time=04:08:06.99 bitrate=7183.3kbits/s speed=92.4x    frame=896611 fps=5548 q=-1.0 size=13093632kB time=04:09:03.66 bitrate=7177.8kbits/s speed=92.5x    frame=899610 fps=5550 q=-1.0 size=13129216kB time=04:09:53.64 bitrate=7173.3kbits/s speed=92.5x    frame=904840 fps=5565 q=-1.0 size=13167104kB time=04:11:20.81 bitrate=7152.5kbits/s speed=92.7x    frame=909635 fps=5577 q=-1.0 size=13206528kB time=04:12:40.73 bitrate=7136.1kbits/s speed=  93x    frame=913421 fps=5583 q=-1.0 size=13246464kB time=04:13:43.83 bitrate=7128.0kbits/s speed=93.1x    frame=917994 fps=5594 q=-1.0 size=13287936kB time=04:15:00.05 bitrate=7114.7kbits/s speed=93.2x    frame=921320 fps=5597 q=-1.0 size=13325568kB time=04:15:55.48 bitrate=7109.1kbits/s speed=93.3x    frame=925074 fps=5603 q=-1.0 size=13365760kB time=04:16:58.05 bitrate=7101.6kbits/s speed=93.4x    frame=928058 fps=5604 q=-1.0 size=13406208kB time=04:17:47.78 bitrate=7100.2kbits/s speed=93.4x    frame=931124 fps=5606 q=-1.0 size=13443072kB time=04:18:38.89 bitrate=7096.2kbits/s speed=93.4x    frame=936943 fps=5624 q=-1.0 size=13481472kB time=04:20:15.87 bitrate=7072.3kbits/s speed=93.7x    frame=942515 fps=5640 q=-1.0 size=13521152kB time=04:21:48.74 bitrate=7051.2kbits/s speed=  94x    frame=946559 fps=5648 q=-1.0 size=13558528kB time=04:22:56.13 bitrate=7040.5kbits/s speed=94.1x    frame=951586 fps=5661 q=-1.0 size=13600256kB time=04:24:19.91 bitrate=7024.8kbits/s speed=94.3x    frame=957029 fps=5676 q=-1.0 size=13638656kB time=04:25:50.63 bitrate=7004.6kbits/s speed=94.6x    frame=962118 fps=5690 q=-1.0 size=13678336kB time=04:27:15.44 bitrate=6987.8kbits/s speed=94.8x    frame=966475 fps=5699 q=-1.0 size=13717504kB time=04:28:28.07 bitrate=6976.2kbits/s speed=  95x    frame=969551 fps=5700 q=-1.0 size=13755904kB time=04:29:19.33 bitrate=6973.6kbits/s speed=  95x    frame=973981 fps=5709 q=-1.0 size=13795072kB time=04:30:33.17 bitrate=6961.6kbits/s speed=95.2x    frame=976536 fps=5707 q=-1.0 size=13830144kB time=04:31:15.74 bitrate=6961.1kbits/s speed=95.1x    frame=979393 fps=5707 q=-1.0 size=13868288kB time=04:32:03.37 bitrate=6959.9kbits/s speed=95.1x    frame=982244 fps=5707 q=-1.0 size=13907200kB time=04:32:50.88 bitrate=6959.2kbits/s speed=95.1x    frame=986392 fps=5715 q=-1.0 size=13945600kB time=04:34:00.01 bitrate=6949.0kbits/s speed=95.2x    frame=990089 fps=5720 q=-1.0 size=13984000kB time=04:35:01.63 bitrate=6942.2kbits/s speed=95.3x    frame=993389 fps=5722 q=-1.0 size=14021120kB time=04:35:56.63 bitrate=6937.5kbits/s speed=95.4x    frame=997340 fps=5728 q=-1.0 size=14061824kB time=04:37:02.48 bitrate=6930.0kbits/s speed=95.5x    frame=1000088 fps=5728 q=-1.0 size=14099968kB time=04:37:48.29 bitrate=6929.7kbits/s speed=95.5x    frame=1003142 fps=5729 q=-1.0 size=14140416kB time=04:38:39.19 bitrate=6928.5kbits/s speed=95.5x    frame=1006399 fps=5731 q=-1.0 size=14180864kB time=04:39:33.46 bitrate=6925.8kbits/s speed=95.5x    frame=1009156 fps=5730 q=-1.0 size=14217472kB time=04:40:19.41 bitrate=6924.7kbits/s speed=95.5x    frame=1011835 fps=5729 q=-1.0 size=14257664kB time=04:41:04.06 bitrate=6925.9kbits/s speed=95.5x    frame=1014967 fps=5731 q=-1.0 size=14299904kB time=04:41:56.26 bitrate=6925.0kbits/s speed=95.5x    frame=1021414 fps=5751 q=-1.0 size=14334464kB time=04:43:43.72 bitrate=6897.9kbits/s speed=95.9x    frame=1027187 fps=5767 q=-1.0 size=14375936kB time=04:45:19.94 bitrate=6879.0kbits/s speed=96.1x    frame=1029885 fps=5766 q=-1.0 size=14416384kB time=04:46:04.89 bitrate=6880.3kbits/s speed=96.1x    frame=1035499 fps=5781 q=-1.0 size=14454528kB time=04:47:38.47 bitrate=6861.1kbits/s speed=96.4x    frame=1038970 fps=5785 q=-1.0 size=14494976kB time=04:48:36.31 bitrate=6857.3kbits/s speed=96.4x    frame=1041543 fps=5783 q=-1.0 size=14534400kB time=04:49:19.19 bitrate=6858.9kbits/s speed=96.4x    frame=1044805 fps=5785 q=-1.0 size=14577152kB time=04:50:13.56 bitrate=6857.6kbits/s speed=96.4x    frame=1047622 fps=5785 q=-1.0 size=14615296kB time=04:51:00.52 bitrate=6857.1kbits/s speed=96.4x    frame=1050894 fps=5787 q=-1.0 size=14663424kB time=04:51:55.05 bitrate=6858.3kbits/s speed=96.4x    frame=1055407 fps=5796 q=-1.0 size=14712320kB time=04:53:10.26 bitrate=6851.7kbits/s speed=96.6x    frame=1058967 fps=5799 q=-1.0 size=14754048kB time=04:54:09.60 bitrate=6848.0kbits/s speed=96.7x    frame=1061891 fps=5799 q=-1.0 size=14792704kB time=04:54:58.33 bitrate=6847.1kbits/s speed=96.7x    frame=1065407 fps=5803 q=-1.0 size=14834944kB time=04:55:56.93 bitrate=6844.0kbits/s speed=96.7x    frame=1068695 fps=5805 q=-1.0 size=14876416kB time=04:56:51.73 bitrate=6842.0kbits/s speed=96.7x    frame=1072228 fps=5808 q=-1.0 size=14916352kB time=04:57:50.61 bitrate=6837.7kbits/s speed=96.8x    frame=1076288 fps=5814 q=-1.0 size=14960384kB time=04:58:58.28 bitrate=6832.1kbits/s speed=96.9x    frame=1078816 fps=5812 q=-1.0 size=15001088kB time=04:59:40.41 bitrate=6834.6kbits/s speed=96.9x    frame=1081332 fps=5810 q=-1.0 size=15042816kB time=05:00:22.36 bitrate=6837.7kbits/s speed=96.8x    frame=1083808 fps=5808 q=-1.0 size=15083776kB time=05:01:03.61 bitrate=6840.6kbits/s speed=96.8x    frame=1086438 fps=5806 q=-1.0 size=15127296kB time=05:01:47.46 bitrate=6843.7kbits/s speed=96.8x    frame=1088929 fps=5804 q=-1.0 size=15168768kB time=05:02:28.96 bitrate=6846.8kbits/s speed=96.7x    frame=1091288 fps=5801 q=-1.0 size=15207680kB time=05:03:08.28 bitrate=6849.5kbits/s speed=96.7x    frame=1093838 fps=5799 q=-1.0 size=15250176kB time=05:03:50.78 bitrate=6852.7kbits/s speed=96.7x    frame=1096477 fps=5798 q=-1.0 size=15293696kB time=05:04:34.76 bitrate=6855.7kbits/s speed=96.6x    frame=1098822 fps=5795 q=-1.0 size=15332608kB time=05:05:13.86 bitrate=6858.5kbits/s speed=96.6x    frame=1101453 fps=5794 q=-1.0 size=15376128kB time=05:05:57.69 bitrate=6861.5kbits/s speed=96.6x    frame=1103968 fps=5792 q=-1.0 size=15417856kB time=05:06:39.61 bitrate=6864.4kbits/s speed=96.5x    frame=1106413 fps=5789 q=-1.0 size=15458304kB time=05:07:20.36 bitrate=6867.2kbits/s speed=96.5x    frame=1108699 fps=5786 q=-1.0 size=15496192kB time=05:07:58.46 bitrate=6869.9kbits/s speed=96.4x    frame=1111112 fps=5784 q=-1.0 size=15536128kB time=05:08:38.68 bitrate=6872.6kbits/s speed=96.4x    frame=1113896 fps=5783 q=-1.0 size=15578880kB time=05:09:25.08 bitrate=6874.3kbits/s speed=96.4x    frame=1116571 fps=5782 q=-1.0 size=15623168kB time=05:10:09.66 bitrate=6877.3kbits/s speed=96.4x    frame=1119000 fps=5779 q=-1.0 size=15663360kB time=05:10:50.15 bitrate=6880.1kbits/s speed=96.3x    frame=1121541 fps=5778 q=-1.0 size=15705600kB time=05:11:32.50 bitrate=6883.0kbits/s speed=96.3x    frame=1124151 fps=5776 q=-1.0 size=15748864kB time=05:12:16.00 bitrate=6885.9kbits/s speed=96.3x    frame=1126639 fps=5774 q=-1.0 size=15790080kB time=05:12:57.47 bitrate=6888.7kbits/s speed=96.2x    frame=1129322 fps=5773 q=-1.0 size=15834624kB time=05:13:42.19 bitrate=6891.7kbits/s speed=96.2x    frame=1131836 fps=5771 q=-1.0 size=15876352kB time=05:14:24.08 bitrate=6894.5kbits/s speed=96.2x    frame=1134487 fps=5770 q=-1.0 size=15920128kB time=05:15:08.26 bitrate=6897.4kbits/s speed=96.2x    frame=1137161 fps=5769 q=-1.0 size=15964416kB time=05:15:52.83 bitrate=6900.3kbits/s speed=96.1x    frame=1141107 fps=5774 q=-1.0 size=16003328kB time=05:16:58.59 bitrate=6893.2kbits/s speed=96.2x    frame=1142150 fps=5776 q=-1.0 Lsize=16012506kB time=05:17:15.99 bitrate=6890.9kbits/s speed=96.3x    
video:15665078kB audio:309186kB subtitle:0kB other streams:0kB global headers:0kB muxing overhead: 0.239397%
ffmpeg version 4.4.2-0ubuntu0.22.04.1 Copyright (c) 2000-2021 the FFmpeg developers
  built with gcc 11 (Ubuntu 11.2.0-19ubuntu1)
  configuration: --prefix=/usr --extra-version=0ubuntu0.22.04.1 --toolchain=hardened --libdir=/usr/lib/x86_64-linux-gnu --incdir=/usr/include/x86_64-linux-gnu --arch=amd64 --enable-gpl --disable-stripping --enable-gnutls --enable-ladspa --enable-libaom --enable-libass --enable-libbluray --enable-libbs2b --enable-libcaca --enable-libcdio --enable-libcodec2 --enable-libdav1d --enable-libflite --enable-libfontconfig --enable-libfreetype --enable-libfribidi --enable-libgme --enable-libgsm --enable-libjack --enable-libmp3lame --enable-libmysofa --enable-libopenjpeg --enable-libopenmpt --enable-libopus --enable-libpulse --enable-librabbitmq --enable-librubberband --enable-libshine --enable-libsnappy --enable-libsoxr --enable-libspeex --enable-libsrt --enable-libssh --enable-libtheora --enable-libtwolame --enable-libvidstab --enable-libvorbis --enable-libvpx --enable-libwebp --enable-libx265 --enable-libxml2 --enable-libxvid --enable-libzimg --enable-libzmq --enable-libzvbi --enable-lv2 --enable-omx --enable-openal --enable-opencl --enable-opengl --enable-sdl2 --enable-pocketsphinx --enable-librsvg --enable-libmfx --enable-libdc1394 --enable-libdrm --enable-libiec61883 --enable-chromaprint --enable-frei0r --enable-libx264 --enable-shared
  libavutil      56. 70.100 / 56. 70.100
  libavcodec     58.134.100 / 58.134.100
  libavformat    58. 76.100 / 58. 76.100
  libavdevice    58. 13.100 / 58. 13.100
  libavfilter     7.110.100 /  7.110.100
  libswscale      5.  9.100 /  5.  9.100
  libswresample   3.  9.100 /  3.  9.100
  libpostproc    55.  9.100 / 55.  9.100
/storage/32426326/20250531/32426326-20250531-150712-270.all.empty.png: No such file or directory
